<svg viewBox="0 0 700 700" fill="none" xmlns="http://www.w3.org/2000/svg">
  <rect width="700" height="700" fill="#121212"/>
  <path d="M106.132 524.031C109.424 521.99 106.323 521.317 105.53 520.658C97.6971 514.145 90.4321 507.058 83.5265 499.581C53.8906 467.491 35.2231 429.897 28.8365 386.742C16.3174 302.149 43.9146 231.651 106.34 174.484C139.865 143.783 180.05 126.143 224.799 118.599C240.805 115.9 256.914 115.024 273.036 115.827C341.498 119.233 399.103 145.939 443.688 198.297C470.114 229.33 484.3 266.306 490.528 306.415C491.331 311.586 492.133 316.758 492.964 322.108C495.315 321.089 495.544 319.094 496.165 317.5C505.053 294.665 518.088 274.914 538.366 260.539C540.406 259.093 540.841 257.221 540.838 254.922C540.809 229.592 540.783 204.26 540.883 178.93C540.896 175.757 539.788 174.34 536.757 173.202C521.921 167.63 514.366 153.232 518.126 138.332C521.927 123.271 535.867 114.12 552.473 115.786C566.609 117.204 578.839 129.987 578.938 144.487C579.019 156.289 574.443 166.993 559.885 172.682C555.477 174.405 554.355 176.776 554.4 181.219C554.614 202.548 554.493 223.881 554.49 245.212C554.49 247.017 554.49 248.823 554.49 251.641C570.513 245.038 586.504 242.027 603.065 242.783C619.724 243.544 635.412 247.981 649.75 256.358C651.236 254.529 650.798 252.973 650.8 251.539C650.834 227.874 650.714 204.209 650.931 180.546C650.971 176.147 649.361 174.15 645.468 172.424C632.29 166.581 626.212 155.367 627.833 140.931C629.147 129.229 638.9 119.035 651.522 116.172C665.672 112.962 681.474 121.675 686.525 135.472C691.689 149.575 685.736 165.295 671.764 171.563C665.584 174.336 664.257 177.821 664.339 184.037C664.685 210.197 664.528 236.364 664.445 262.528C664.435 265.548 665.139 267.922 667.287 270.14C684.592 288.003 694.254 309.582 697.208 334.077C699.599 353.9 697.623 373.621 693.226 392.995C681.486 444.722 656.963 489.45 618.09 525.733C585.349 556.293 546.668 575.378 502.249 582.18C491.908 583.764 481.44 584.499 470.915 584.494C319.262 584.416 167.61 584.428 15.9574 584.433C10.7585 584.433 5.07633 585.12 2.5367 579.204C0.0834414 573.489 3.9858 569.284 7.40824 565.472C21.2458 550.063 38.8982 540.612 58.0817 533.688C73.5079 528.119 89.4768 525.17 106.132 524.031ZM683.01 333.488C682.474 328.342 681.218 323.343 679.734 318.411C663.431 264.247 610.293 245.476 564.269 263.188C538.94 272.936 523.062 292.336 512.102 316.337C503.63 334.889 498.51 354.558 493.508 374.215C484.915 407.982 473.581 440.563 453.359 469.358C426.549 507.533 392.252 536.848 349.614 556.155C337.603 561.595 325.154 565.837 312.542 569.776C363.939 570.104 415.263 570.09 466.587 570.113C480.576 570.119 494.491 569.468 508.274 566.792C565.56 555.671 608.981 523.829 641.671 476.602C662.766 446.125 676.961 412.596 682.32 375.637C684.31 361.907 684.635 348.154 683.01 333.488ZM441.403 218.303C434.985 209.536 427.904 201.347 419.569 194.356C398.506 176.692 374.146 168.875 347.11 173.819C311.202 180.384 287.167 202.415 272.853 235.546C272.689 235.926 272.923 236.479 273.023 237.463C278.254 238.07 283.555 237.942 288.782 238.555C307.719 240.775 325.702 246.06 342.058 255.715C383.316 280.07 403.558 317.055 405.309 364.424C405.782 377.214 404.552 390.056 404.597 402.872C404.708 434.517 405.099 466.16 405.406 497.803C405.419 499.068 404.969 500.463 406.018 501.592C479.548 437.708 510.469 323.936 441.403 218.303ZM384.947 327.722C376.781 305.531 363.452 287.185 343.929 273.692C316.368 254.642 285.601 248.316 252.722 252.458C219.397 256.656 192.998 273.017 173.482 300.29C160.345 318.65 152.438 339.065 150.377 361.663C149.616 370.007 149.477 369.944 157.767 370.009C214.741 370.452 271.726 368.968 328.69 370.765C351.743 371.491 371.337 380.123 386.542 397.901C387.719 399.278 388.463 401.348 391.477 401.855C391.866 376.902 393.657 352.289 384.947 327.722ZM45.5215 298.812C39.0651 324.413 37.5234 350.445 40.7598 376.509C45.3171 413.211 58.9884 446.458 81.4195 476.028C83.9841 479.408 86.6658 480.846 90.9943 480.824C125.308 480.649 159.624 480.724 193.939 480.723C195.705 480.723 197.471 480.723 199.237 480.723C165.683 458.991 144.219 429.225 137.606 389.966C130.961 350.51 143.699 315.915 167.586 284.523C159.856 277.308 151.431 271.801 142.153 267.55C115.786 255.469 89.5439 254.97 63.3052 268.107C56.5379 271.495 51.6342 275.923 50.0384 283.708C49.0422 288.568 47.163 293.247 45.5215 298.812ZM242.05 130.48C239.085 130.836 236.108 131.118 233.155 131.56C199.116 136.649 167.472 147.98 138.752 167.253C113.778 184.013 93.2067 205.054 76.5307 229.971C71.8896 236.906 67.4638 244.007 63.5651 252.322C65.3581 251.665 66.2855 251.344 67.1995 250.988C86.0587 243.645 105.451 242.733 125.044 246.904C143.077 250.743 159.378 258.53 173.409 270.622C176.291 273.106 178.283 273.138 180.978 270.591C183.873 267.855 187.042 265.385 190.23 262.984C207.036 250.327 225.905 242.329 246.619 238.985C252.514 238.033 257.231 237.901 259.87 230.644C274.401 190.69 314.123 156.812 365.675 158.675C367.389 158.737 369.363 159.333 370.762 157.65C370.772 156.338 369.798 155.926 368.932 155.456C341.137 140.393 311.241 132.826 279.88 130.391C267.57 129.436 255.28 129.69 242.05 130.48ZM239.645 383.502C211.667 383.497 183.689 383.502 155.711 383.47C152.681 383.466 149.833 383.245 150.712 387.838C156.091 415.966 169.773 439.255 192.167 457.005C212.686 473.269 236.294 480.953 262.632 480.774C302.96 480.5 343.292 480.713 383.622 480.718C385.122 480.718 386.622 480.685 388.121 480.701C390.29 480.724 391.717 479.83 391.71 477.523C391.661 463.208 393.231 448.712 390.215 434.647C384.248 406.817 357.968 385.422 329.587 384.426C299.949 383.385 270.296 383.495 239.645 383.502ZM193.171 552.491C221.576 562.127 250.676 566.782 280.547 562.513C317.389 557.248 350.87 543.377 381.411 521.924C389.297 516.385 393.016 510.61 391.942 501.024C391.177 494.191 391.784 494.125 384.989 494.124C373.406 494.123 361.823 494.122 350.239 494.122C268.712 494.116 187.184 494.109 105.657 494.121C103.585 494.121 101.418 493.77 99.3411 494.818C110.917 510.564 150.586 537.99 193.171 552.491ZM127.736 537.589C86.5929 535.773 35.5704 551.564 24.5861 569.746C83.4447 569.746 142.131 569.746 200.945 569.746C200.231 568.597 199.177 568.641 198.251 568.369C184.029 564.196 170.031 559.38 156.76 552.732C147.247 547.967 137.935 542.801 127.736 537.589ZM533.496 150.991C534.27 152.271 534.891 153.681 535.846 154.808C539.806 159.482 544.863 161.701 550.944 160.413C557.557 159.012 561.881 154.832 563.436 148.224C564.804 142.406 562.236 137.797 558.048 134.035C553.216 129.695 545.33 129.137 539.878 132.539C533.786 136.34 531.409 142.662 533.496 150.991ZM662.406 131.131C660.535 130.159 658.508 130.363 656.528 130.444C650.28 130.699 645.09 134.545 643.165 140.663C641.297 146.601 642.817 151.835 647.326 156.115C652.249 160.788 658.31 161.944 663.848 159.352C669.791 156.571 673.574 151.845 673.444 145.358C673.311 138.727 669.617 133.81 662.406 131.131Z" fill="white"/>
  <path d="M533.496 150.991C534.27 152.271 534.891 153.681 535.846 154.808C539.806 159.482 544.863 161.701 550.944 160.413C557.557 159.012 561.881 154.832 563.436 148.224C564.804 142.406 562.236 137.797 558.048 134.035C553.216 129.695 545.33 129.137 539.878 132.539C533.786 136.34 531.409 142.662 533.496 150.991Z" fill="white"/>
  <path d="M662.406 131.131C660.535 130.159 658.508 130.363 656.528 130.444C650.28 130.699 645.09 134.545 643.165 140.663C641.297 146.601 642.817 151.835 647.326 156.115C652.249 160.788 658.31 161.944 663.848 159.352C669.791 156.571 673.574 151.845 673.444 145.358C673.311 138.727 669.617 133.81 662.406 131.131Z" fill="white"/>
  <path d="M572.248 317.466C575.034 318.966 575.824 321.278 576.541 323.737C579.464 333.763 586.603 340.2 595.234 340.719C605.225 341.321 613.562 335.754 617.684 325.714C618.126 324.637 618.464 323.517 618.921 322.446C621.067 317.414 624.197 315.669 628.648 316.989C632.6 318.161 634.384 322.176 633.207 327.246C629.724 342.24 613.236 355.259 597.589 355.369C581.263 355.483 566.363 344.023 562.228 328.17C560.08 319.938 563.662 315.897 572.248 317.466Z" fill="white"/>
</svg>
